<svg width="1100" height="760" viewBox="0 0 1100 760" fill="none" xmlns="http://www.w3.org/2000/svg">
  <defs>
    <linearGradient id="bg" x1="140" y1="80" x2="980" y2="720" gradientUnits="userSpaceOnUse">
      <stop stop-color="#111B35"/>
      <stop offset="1" stop-color="#081126"/>
    </linearGradient>
  </defs>
  <rect width="1100" height="760" rx="20" fill="url(#bg)"/>

  <rect x="78" y="88" width="944" height="584" rx="16" fill="#0F1A35" stroke="#28406F"/>
  <rect x="108" y="126" width="420" height="234" rx="12" fill="#13234B" stroke="#5B8DFF"/>
  <rect x="552" y="126" width="438" height="234" rx="12" fill="#13234B" stroke="#2DE2CF"/>

  <polyline points="140,322 208,252 268,286 336,208 420,248 500,188"
    stroke="#5B8DFF" stroke-width="4" fill="none" stroke-linecap="round" stroke-linejoin="round"/>
  <polyline points="586,302 652,242 716,270 778,226 842,258 930,172"
    stroke="#2DE2CF" stroke-width="4" fill="none" stroke-linecap="round" stroke-linejoin="round"/>

  <rect x="108" y="388" width="882" height="250" rx="12" fill="#111F3F" stroke="#2A467A"/>
  <rect x="146" y="430" width="152" height="96" rx="12" fill="#17325F"/>
  <rect x="318" y="430" width="152" height="96" rx="12" fill="#17325F"/>
  <rect x="490" y="430" width="152" height="96" rx="12" fill="#17325F"/>
  <rect x="662" y="430" width="152" height="96" rx="12" fill="#17325F"/>
  <rect x="834" y="430" width="118" height="168" rx="12" fill="#17325F"/>

  <rect x="164" y="446" width="90" height="12" rx="6" fill="#2DE2CF"/>
  <rect x="164" y="466" width="112" height="10" rx="5" fill="#D4E6FF" fill-opacity="0.54"/>
  <rect x="336" y="446" width="98" height="12" rx="6" fill="#5B8DFF"/>
  <rect x="336" y="466" width="108" height="10" rx="5" fill="#D4E6FF" fill-opacity="0.54"/>
  <rect x="508" y="446" width="84" height="12" rx="6" fill="#2DE2CF"/>
  <rect x="508" y="466" width="118" height="10" rx="5" fill="#D4E6FF" fill-opacity="0.54"/>
  <rect x="680" y="446" width="95" height="12" rx="6" fill="#5B8DFF"/>
  <rect x="680" y="466" width="112" height="10" rx="5" fill="#D4E6FF" fill-opacity="0.54"/>

  <circle cx="898" cy="512" r="26" fill="#5B8DFF"/>
  <circle cx="898" cy="582" r="26" fill="#2DE2CF"/>
</svg>
